<svg width="46" height="56" viewBox="0 0 46 56" fill="none" xmlns="http://www.w3.org/2000/svg">
<path d="M23 53C29.0751 53 34 51.2091 34 49C34 46.7909 29.0751 45 23 45C16.9249 45 12 46.7909 12 49C12 51.2091 16.9249 53 23 53Z" fill="black" fill-opacity="0.25"/>
<g filter="url(#filter0_d)">
<path d="M39 21.8914C39 30.4182 25.6334 44.1291 23.3351 46.839C23.2945 46.8893 23.2433 46.9299 23.1854 46.9577C23.1274 46.9856 23.0641 47 23 47C22.9359 47 22.8726 46.9856 22.8146 46.9577C22.7567 46.9299 22.7055 46.8893 22.6649 46.839C20.3666 44.1281 7 30.4182 7 21.8914C7 12.5627 14.1624 5 23 5C31.8376 5 39 12.5627 39 21.8914Z" fill="black"/>
</g>
<path d="M40 22.696C40 31.629 25.798 45.993 23.356 48.832C23.3129 48.8847 23.2585 48.9272 23.197 48.9564C23.1354 48.9856 23.0681 49.0007 23 49.0007C22.9319 49.0007 22.8646 48.9856 22.803 48.9564C22.7415 48.9272 22.6871 48.8847 22.644 48.832C20.202 45.992 6 31.629 6 22.696C6 12.923 13.61 5 23 5C32.39 5 40 12.923 40 22.696Z" fill="#FF9D49"/>
<path fill-rule="evenodd" clip-rule="evenodd" d="M16 16.5V19H30V16.5H16ZM17 14.463V16.5H29V13.54L17 14.463ZM17.037 19L17.966 32H28.034L28.963 19H17.037Z" stroke="white"/>
<path d="M23 28.5C24.933 28.5 26.5 26.933 26.5 25C26.5 23.067 24.933 21.5 23 21.5C21.067 21.5 19.5 23.067 19.5 25C19.5 26.933 21.067 28.5 23 28.5Z" stroke="white"/>
<path d="M17.5 25H20M26 25H28.5H26Z" stroke="white"/>
<defs>
<filter id="filter0_d" x="0" y="0" width="46" height="56" filterUnits="userSpaceOnUse" color-interpolation-filters="sRGB">
<feFlood flood-opacity="0" result="BackgroundImageFix"/>
<feColorMatrix in="SourceAlpha" type="matrix" values="0 0 0 0 0 0 0 0 0 0 0 0 0 0 0 0 0 0 127 0"/>
<feOffset dy="2"/>
<feGaussianBlur stdDeviation="3.5"/>
<feColorMatrix type="matrix" values="0 0 0 0 0 0 0 0 0 0 0 0 0 0 0 0 0 0 0.6 0"/>
<feBlend mode="normal" in2="BackgroundImageFix" result="effect1_dropShadow"/>
<feBlend mode="normal" in="SourceGraphic" in2="effect1_dropShadow" result="shape"/>
</filter>
</defs>
</svg>
