<svg width="48" height="48" viewBox="0 0 48 48" fill="none" xmlns="http://www.w3.org/2000/svg" style="flex: 0 0 auto;"><path d="M24 22C26.21 22 28 23.79 28 26C28 28.21 26.21 30 24 30C21.79 30 20 28.21 20 26C20 23.79 21.79 22 24 22ZM24 20C20.69 20 18 22.69 18 26C18 29.31 20.69 32 24 32C27.31 32 30 29.31 30 26C30 22.69 27.31 20 24 20Z" fill="#434343"></path><path d="M34 18H30V20H34V18Z" fill="#434343"></path><path d="M25 25H23V27H25V25Z" fill="#434343"></path><path d="M38 10H6V12H10V24C10 31.72 16.28 38 24 38C31.72 38 38 31.72 38 24V12H42V10H38ZM36 24C36 30.63 30.63 36 24 36C17.37 36 12 30.63 12 24V16H36V24ZM36 14H12V12H36V14Z" fill="#434343"></path></svg>