<svg xmlns="http://www.w3.org/2000/svg" xml:space="preserve" style="fill-rule:evenodd;clip-rule:evenodd;stroke-linejoin:round;stroke-miterlimit:2" viewBox="0 0 151 62"><path d="M32.295 46.12c5.695-2.921 9.194-9.448 8.985-16.423-.053-1.775-.102-3.721-.545-5.363-.033-.122-.786-.063-.786-.063s-.106-.356-.162-.532C37.093 15.317 28.934 9.164 19.288 9.164H0v41.21h19.288c4.894 0 9.39-1.598 13.007-4.254zm-13.007-8.309h-6.203V21.725h6.203c4.618 0 8.381 3.609 8.381 8.048 0 4.431-3.763 8.038-8.381 8.038z" style="fill:#608df9;fill-rule:nonzero;stroke-width:1"/><path d="M73.217 39.232c2.285-7.602-5.987-17.08-13.679-17.796v-.001c-.128-.045-.252-.092-.385-.135-.037-.011-.077-.022-.109-.036-.094-.03-.186-.062-.279-.09a21.506 21.506 0 0 0-6.312-.946c-4.694 0-9.017 1.52-12.503 4.044a19.72 19.72 0 0 1 .798 5.501c0 6.661-3.323 12.579-8.449 16.346 2.292 8.641 10.446 15.06 20.154 15.06 4.552 0 8.753-1.424 12.183-3.814 1.963 1.703 4.732 2.803 8.639 3.365V40.215c0-.255-.032-.5-.041-.75l-.005-.114c0-.041-.009-.081-.01-.118zm-13.026 1.963c0 4.094-3.473 7.424-7.738 7.424-4.267 0-7.738-3.33-7.738-7.424v-.98c0-4.091 3.471-7.424 7.738-7.424 4.265 0 7.738 3.333 7.738 7.424z" style="fill:#abc600;fill-rule:nonzero"/><path d="M477.524 315.447c.005-.001-.005.002 0 0 .006-.006-.009.005 0 0 .086-.062.357-.171.438-.235l.002-13.439h-13.08v21.241c0 3.512-2.976 6.362-6.631 6.362-3.659 0-6.629-2.85-6.629-6.362v-21.241h-13.085v21.301l.002.132c7.691 2.684 13.265 9.594 13.684 17.798.132.04.257.08.388.119.037.012.077.02.117.033.091.028.18.056.277.08a20.101 20.101 0 0 0 17.215-3.225c.133-.095.258-.199.39-.3 2.07-2.957.436-5.91.496-8.872.12-5.903 2.139-8.249 6.416-13.392" style="fill:#fbb900;fill-rule:nonzero" transform="translate(-379.005 -301.773)"/><path d="M98.957 13.168c-.081.062-.17.119-.252.181a.056.056 0 0 0-.022.017c-.005 0-.01.007-.013.01-4.288 3.16-7.064 8.119-7.064 13.693v23.307h13.043v-23.31c0-2.624 2.223-4.751 4.958-4.751 2.732 0 4.958 2.127 4.958 4.751v23.31h13.042v-23.31c0-2.624 2.222-4.751 4.959-4.751 2.731 0 4.958 2.127 4.958 4.751v23.31h13.037v-23.31c0-9.525-8.07-17.28-17.995-17.28a18.393 18.393 0 0 0-11.481 3.987 18.384 18.384 0 0 0-11.477-3.987 18.432 18.432 0 0 0-10.286 3.118c-.122.086-.24.175-.365.26v.004Zm-7.092 22.568h-.004l-.031.026a.403.403 0 0 0 .032-.026h.003Z" style="fill:#ef685e;fill-rule:nonzero"/></svg>