<svg width="48" height="48" viewBox="0 0 48 48" fill="none" xmlns="http://www.w3.org/2000/svg" style="flex: 0 0 auto;"><path d="M36 12H34V14H36V12Z" fill="#434343"></path><path d="M36 16H34V18H36V16Z" fill="#434343"></path><path d="M38 8H10C8.9 8 8 8.9 8 10V30C8 31.1 8.9 32 10 32H12.97L11.03 39.76L12.97 40.24L15.03 31.99H32.97L35.03 40.24L36.97 39.76L35.03 32H38C39.1 32 40 31.1 40 30V10C40 8.9 39.1 8 38 8ZM38 30H10V10H38V30Z" fill="#434343"></path><path d="M30 14V26H14V14H30ZM32 12H12V28H32V12Z" fill="#434343"></path></svg>