<svg width="48" height="48" viewBox="0 0 48 48" fill="none" xmlns="http://www.w3.org/2000/svg" style="flex: 0 0 auto;"><path d="M34 22V34H14V22H34ZM36 20H12V36H36V20Z" fill="#434343"></path><path d="M28 24H20V26H28V24Z" fill="#434343"></path><path d="M38 8H10C8.9 8 8 8.9 8 10V38C8 39.1 8.9 40 10 40H38C39.1 40 40 39.1 40 38V10C40 8.9 39.1 8 38 8ZM38 38H10V18H38V38ZM38 16H10V10H38V16Z" fill="#434343"></path><path d="M34 12H30V14H34V12Z" fill="#434343"></path><path d="M16 12H14V14H16V12Z" fill="#434343"></path><path d="M20 12H18V14H20V12Z" fill="#434343"></path></svg>