<svg width="48" height="48" viewBox="0 0 48 48" fill="none" xmlns="http://www.w3.org/2000/svg" style="flex: 0 0 auto;"><path d="M39.99 10H7.98999C6.88999 10 5.98999 10.9 5.98999 12V36C5.98999 37.1 6.88999 38 7.98999 38H13.99V40H17.99V38H29.99V40H33.99V38H39.99C41.09 38 41.99 37.1 41.99 36V12C41.99 10.9 41.09 10 39.99 10ZM39.99 36H7.98999V12H39.99V36Z" fill="#434343"></path><path d="M16.99 23H14.99V25H16.99V23Z" fill="#434343"></path><path d="M32.99 23H30.99V25H32.99V23Z" fill="#434343"></path><path d="M21.28 17.29L19.46 19.11C18.45 18.39 17.25 18 15.99 18C14.73 18 13.53 18.39 12.52 19.11L10.7 17.29L9.29004 18.7L11.11 20.52C10.39 21.53 10 22.73 10 23.99C10 25.25 10.39 26.45 11.11 27.46L9.29004 29.28L10.7 30.69L12.52 28.87C13.53 29.59 14.73 29.98 15.99 29.98C17.25 29.98 18.45 29.59 19.46 28.87L21.28 30.69L22.69 29.28L20.87 27.46C21.59 26.45 21.98 25.25 21.98 23.99C21.98 22.73 21.59 21.53 20.87 20.52L22.69 18.7L21.28 17.29ZM19.42 26.02L18.69 25.29L17.28 26.7L18.01 27.43C17.39 27.8 16.69 27.99 15.99 27.99C15.29 27.99 14.59 27.79 13.97 27.43L14.7 26.7L13.29 25.29L12.56 26.02C11.83 24.77 11.83 23.22 12.56 21.98L13.29 22.71L14.7 21.3L13.97 20.57C14.59 20.2 15.29 20.01 15.99 20.01C16.69 20.01 17.39 20.21 18.01 20.57L17.28 21.3L18.69 22.71L19.42 21.98C20.15 23.23 20.15 24.78 19.42 26.02Z" fill="#434343"></path><path d="M37.9901 24C37.9901 22.74 37.6001 21.54 36.8801 20.53L38.7001 18.71L37.2901 17.3L35.47 19.12C34.46 18.4 33.26 18.01 32 18.01C30.74 18.01 29.54 18.4 28.53 19.12L26.7101 17.3L25.3 18.71L27.1201 20.53C26.4001 21.54 26.0101 22.74 26.0101 24C26.0101 25.26 26.4001 26.46 27.1201 27.47L25.3 29.29L26.7101 30.7L28.53 28.88C29.54 29.6 30.74 29.99 32 29.99C33.26 29.99 34.46 29.6 35.47 28.88L37.2901 30.7L38.7001 29.29L36.8801 27.47C37.6001 26.46 37.9901 25.26 37.9901 24ZM31.9901 28C31.2901 28 30.59 27.8 29.97 27.44L30.7001 26.71L29.2901 25.3L28.5601 26.03C27.8301 24.78 27.8301 23.23 28.5601 21.99L29.2901 22.72L30.7001 21.31L29.97 20.58C30.59 20.21 31.2901 20.02 31.9901 20.02C32.6901 20.02 33.3901 20.22 34.0101 20.58L33.28 21.31L34.69 22.72L35.42 21.99C36.15 23.24 36.15 24.79 35.42 26.03L34.69 25.3L33.28 26.71L34.0101 27.44C33.3901 27.81 32.6901 28 31.9901 28Z" fill="#434343"></path></svg>