<svg width="48" height="48" viewBox="0 0 48 48" fill="none" xmlns="http://www.w3.org/2000/svg" style="flex: 0 0 auto;"><path d="M34 12H30V14H34V12Z" fill="#434343"></path><path d="M16 12H14V14H16V12Z" fill="#434343"></path><path d="M20 12H18V14H20V12Z" fill="#434343"></path><path d="M38 8H10C8.9 8 8 8.9 8 10V38C8 39.1 8.9 40 10 40H38C39.1 40 40 39.1 40 38V10C40 8.9 39.1 8 38 8ZM38 38H10V18H38V38ZM38 16H10V10H38V16Z" fill="#434343"></path><path d="M24 20C19.59 20 16 23.59 16 28C16 32.41 19.59 36 24 36C28.41 36 32 32.41 32 28C32 23.59 28.41 20 24 20ZM24 34C23.45 34 23 33.55 23 33C23 32.45 23.45 32 24 32V30C22.35 30 21 31.35 21 33C21 33.07 21.02 33.13 21.02 33.2C19.22 32.17 18 30.22 18 28C18 27.45 18.45 27 19 27C19.55 27 20 27.45 20 28H22C22 26.35 20.65 25 19 25C18.93 25 18.87 25.02 18.8 25.02C19.83 23.22 21.78 22 24 22C24.55 22 25 22.45 25 23C25 23.55 24.55 24 24 24V26C25.65 26 27 24.65 27 23C27 22.93 26.98 22.87 26.98 22.8C28.78 23.83 30 25.78 30 28C30 28.55 29.55 29 29 29C28.45 29 28 28.55 28 28H26C26 29.65 27.35 31 29 31C29.07 31 29.13 30.98 29.2 30.98C28.17 32.78 26.22 34 24 34Z" fill="#434343"></path></svg>