<svg width="48" height="48" viewBox="0 0 48 48" fill="none" xmlns="http://www.w3.org/2000/svg" style="flex: 0 0 auto;"><path d="M21.99 28H19.99V30H21.99V28Z" fill="#434343"></path><path d="M27.99 28H25.99V30H27.99V28Z" fill="#434343"></path><path d="M23.99 36C21.78 36 19.99 34.21 19.99 32H21.99C21.99 33.1 22.89 34 23.99 34C25.09 34 25.99 33.1 25.99 32H27.99C27.99 34.21 26.2 36 23.99 36Z" fill="#434343"></path><path d="M35.44 20H35.98V10.65L34.72 10.15L29.72 8.14999L24.72 6.14999L23.98 5.85001L23.24 6.14999L18.24 8.14999L13.24 10.15L11.98 10.65V20H12.54C10.9 22.34 9.98999 25.12 9.98999 28C9.98999 35.72 16.27 42 23.99 42C31.71 42 37.99 35.72 37.99 28C37.99 25.12 37.09 22.34 35.44 20ZM13.98 12L18.98 10L23.98 8L28.98 10L33.98 12V18H13.98V12ZM31.98 20C30.16 22.43 27.26 24 23.99 24C20.72 24 17.82 22.43 16 20H31.98ZM23.99 40C17.36 40 11.99 34.63 11.99 28C11.99 25.38 12.84 22.97 14.27 21C16.45 24.02 19.99 26 23.99 26C27.99 26 31.53 24.02 33.71 21C35.14 22.97 35.99 25.38 35.99 28C35.99 34.63 30.62 40 23.99 40Z" fill="#434343"></path><path d="M23.99 13C24.54 13 24.99 13.45 24.99 14C24.99 14.55 24.54 15 23.99 15C23.44 15 22.99 14.55 22.99 14C22.99 13.45 23.44 13 23.99 13ZM23.99 11C22.34 11 20.99 12.35 20.99 14C20.99 15.65 22.34 17 23.99 17C25.64 17 26.99 15.65 26.99 14C26.99 12.35 25.64 11 23.99 11Z" fill="#434343"></path></svg>