<svg width="48" height="48" viewBox="0 0 48 48" fill="none" xmlns="http://www.w3.org/2000/svg" style="flex: 0 0 auto;"><path d="M34 8H8V34H19.92H21.99V32H19.92C16.61 32 13.3 32 10 32V10H18V20H26V10H34V22H36V8H34ZM24 18H20V10H24V18Z" fill="#434343"></path><path d="M32 25.97C35.31 25.97 38 28.66 38 31.97C38 35.28 35.31 37.97 32 37.97C28.69 37.97 26 35.28 26 31.97C26 28.66 28.69 25.97 32 25.97ZM32 23.97C27.59 23.97 24 27.56 24 31.97C24 36.38 27.59 39.97 32 39.97C36.41 39.97 40 36.38 40 31.97C40 27.56 36.41 23.97 32 23.97Z" fill="#434343"></path><path d="M36 32.97H31V27.97H33V30.97H36V32.97Z" fill="#434343"></path></svg>