<svg width="48" height="48" viewBox="0 0 48 48" fill="none" xmlns="http://www.w3.org/2000/svg" style="flex: 0 0 auto;"><path d="M39.99 10H5.98999V16H9.98999V32H5.98999V38H41.99V32H37.99V16H41.99V10H39.99ZM35.99 12V14H31.49V12H35.99ZM29.49 12V14H24.99V12H29.49ZM24.99 16H29.49V32H24.99V16ZM22.99 32H18.49V16H22.99V32ZM22.99 12V14H18.49V12H22.99ZM16.49 12V14H11.99V12H16.49ZM7.98999 14V12H9.98999V14H7.98999ZM11.99 16H16.49V32H11.99V16ZM7.98999 36V34H9.98999V36H7.98999ZM11.99 36V34H16.49V36H11.99ZM18.49 36V34H22.99V36H18.49ZM24.99 36V34H29.49V36H24.99ZM31.49 36V34H35.99V36H31.49ZM39.99 34V36H37.99V34H39.99ZM35.99 32H31.49V16H35.99V32ZM39.99 14H37.99V12H39.99V14Z" fill="#434343"></path></svg>