<svg width="48" height="48" viewBox="0 0 48 48" fill="none" xmlns="http://www.w3.org/2000/svg" style="flex: 0 0 auto;"><path d="M39.99 28.42V26.42H37.99V10C37.99 8.9 37.09 8 35.99 8H11.99C10.89 8 9.98999 8.9 9.98999 10V26.42H7.98999V28.42H9.98999V38H7.98999V40H39.99V38H37.99V28.42H39.99ZM35.99 10V26.42H24.99V10H35.99ZM11.99 10H22.99V26.42H11.99V10ZM11.99 28.42H16.99V38H11.99V28.42ZM18.99 38V28.42H22.99V38H18.99ZM24.99 28.42H28.99V38H24.99V28.42ZM35.99 38H30.99V28.42H35.99V38Z" fill="#434343"></path></svg>