<svg width="48" height="48" viewBox="0 0 48 48" fill="none" xmlns="http://www.w3.org/2000/svg" style="flex: 0 0 auto;"><path d="M25 34H23V40H25V34Z" fill="#434343"></path><path d="M12 39V37C13.65 37 15 35.65 15 34H17C17 36.76 14.76 39 12 39Z" fill="#434343"></path><path d="M36 39C33.24 39 31 36.76 31 34H33C33 35.65 34.35 37 36 37V39Z" fill="#434343"></path><path d="M40 10H8C6.9 10 6 10.9 6 12V30C6 31.1 6.9 32 8 32H40C41.1 32 42 31.1 42 30V12C42 10.9 41.1 10 40 10ZM14 30V28H34V30H14ZM40 30H36V26H12V30H8V24H40V30ZM40 22H8V12H40V22Z" fill="#434343"></path><path d="M13.97 14H11.97V16H13.97V14Z" fill="#434343"></path><path d="M13.97 17.99H11.97V19.99H13.97V17.99Z" fill="#434343"></path><path d="M35.97 17.99H31.97V19.99H35.97V17.99Z" fill="#434343"></path></svg>