<svg width="48" height="48" viewBox="0 0 48 48" fill="none" xmlns="http://www.w3.org/2000/svg" style="flex: 0 0 auto;"><path d="M24.99 10H22.99V12H24.99V10Z" fill="#434343"></path><path d="M17.98 36H15.98V38H17.98V36Z" fill="#434343"></path><path d="M24.99 36H22.99V38H24.99V36Z" fill="#434343"></path><path d="M31.99 36H29.99V38H31.99V36Z" fill="#434343"></path><path d="M35.99 6H11.99C10.89 6 9.98999 6.9 9.98999 8V40C9.98999 41.1 10.89 42 11.99 42H35.99C37.09 42 37.99 41.1 37.99 40V8C37.99 6.9 37.09 6 35.99 6ZM35.99 40H11.99V16H35.99V40ZM35.99 14H11.99V8H35.99V14Z" fill="#434343"></path><path d="M23.99 20C27.3 20 29.99 22.69 29.99 26C29.99 29.31 27.3 32 23.99 32C20.68 32 17.99 29.31 17.99 26C17.99 22.69 20.68 20 23.99 20ZM23.99 18C19.58 18 15.99 21.59 15.99 26C15.99 30.41 19.58 34 23.99 34C28.4 34 31.99 30.41 31.99 26C31.99 21.59 28.4 18 23.99 18Z" fill="#434343"></path><path d="M22.99 24H20.99V26H22.99V24Z" fill="#434343"></path><path d="M26.99 24H24.99V26H26.99V24Z" fill="#434343"></path><path d="M23.99 30C22.89 30 21.99 29.1 21.99 28H25.99C25.99 29.1 25.09 30 23.99 30Z" fill="#434343"></path></svg>