<svg width="48" height="48" viewBox="0 0 48 48" fill="none" xmlns="http://www.w3.org/2000/svg" style="flex: 0 0 auto;"><path d="M35.99 6V20H23.99V16C23.99 14.9 24.89 14 25.99 14C27.09 14 27.99 14.9 27.99 16H29.99C29.99 13.79 28.2 12 25.99 12C24.79 12 23.72 12.54 22.99 13.38C22.26 12.54 21.19 12 19.99 12C17.78 12 15.99 13.79 15.99 16H17.99C17.99 14.9 18.89 14 19.99 14C21.09 14 21.99 14.9 21.99 16V20H9.98999C8.88999 20 7.98999 20.9 7.98999 22C7.98999 27.51 12.78 32 18.66 32H21.99V42H37.99V6H35.99ZM35.99 40H23.99V32H35.99V40ZM23.99 30H18.66C13.87 30 9.98999 26.42 9.98999 22H35.99V30H23.99Z" fill="#434343"></path></svg>