<svg width="48" height="48" viewBox="0 0 48 48" fill="none" xmlns="http://www.w3.org/2000/svg" style="flex: 0 0 auto;"><path d="M23.9899 20L25.2899 22.63L28.1999 23.05L26.0999 25.1L26.5999 27.99L23.9999 26.62L21.3999 27.99L21.8999 25.1L19.7999 23.05L22.7099 22.63L24.0099 20M24.0099 18C23.2499 18 22.5499 18.43 22.2199 19.11L21.3899 20.8L19.5199 21.07C18.7699 21.18 18.1399 21.71 17.9099 22.43C17.6699 23.15 17.8699 23.95 18.4199 24.48L19.7699 25.8L19.4499 27.66C19.3199 28.41 19.6299 29.17 20.2499 29.62C20.5999 29.87 21.0099 30 21.4299 30C21.7499 30 22.0699 29.92 22.3599 29.77L24.0299 28.89L25.6999 29.77C25.9899 29.92 26.3099 30 26.6299 30C27.0399 30 27.4599 29.87 27.8099 29.62C28.4299 29.17 28.7299 28.41 28.6099 27.66L28.2899 25.8L29.6399 24.48C30.1899 23.95 30.3799 23.15 30.1499 22.43C29.9099 21.71 29.2899 21.18 28.5399 21.07L26.6699 20.8L25.8399 19.11C25.4999 18.43 24.8099 18 24.0499 18H24.0099Z" fill="#434343"></path><path d="M38.54 12.08L31.54 10.08L24.54 8.07999C24.36 8.02999 24.18 8 23.99 8C23.8 8 23.62 8.02999 23.44 8.07999L16.44 10.08L9.43999 12.08C8.57999 12.33 7.98999 13.11 7.98999 14V24C7.98999 32.82 15.17 40 23.99 40C32.81 40 39.99 32.82 39.99 24V14C39.99 13.11 39.4 12.32 38.54 12.08ZM23.99 38C16.26 38 9.98999 31.73 9.98999 24V17.95H13.98V15.95H9.98999V14L16.99 12L23.99 10L30.99 12L37.99 14V15.95H33.98V17.95H37.99V24C37.99 31.73 31.72 38 23.99 38Z" fill="#434343"></path></svg>