<svg width="48" height="48" viewBox="0 0 48 48" fill="none" xmlns="http://www.w3.org/2000/svg" style="flex: 0 0 auto;"><path d="M19.99 20H17.99V22H19.99V20Z" fill="#434343"></path><path d="M19.99 28H17.99V30H19.99V28Z" fill="#434343"></path><path d="M29.99 20H27.99V22H29.99V20Z" fill="#434343"></path><path d="M29.99 28H27.99V30H29.99V28Z" fill="#434343"></path><path d="M21.99 15.99H19.99V17.99H21.99V15.99Z" fill="#434343"></path><path d="M27.99 15.99H25.99V17.99H27.99V15.99Z" fill="#434343"></path><path d="M21.99 24H19.99V26H21.99V24Z" fill="#434343"></path><path d="M27.99 24H25.99V26H27.99V24Z" fill="#434343"></path><path d="M24.99 20H22.99V22H24.99V20Z" fill="#434343"></path><path d="M24.99 28H22.99V30H24.99V28Z" fill="#434343"></path><path d="M35.95 6H12.03C10.93 6 10.03 6.9 10.03 8V40C10.03 41.1 10.93 42 12.03 42H35.95C37.05 42 37.95 41.1 37.95 40V8C37.95 6.9 37.05 6 35.95 6ZM23 8V12H17.99V14H29.99V12H25V8H35.95V36H12.03V8H22.99H23ZM12.04 40V38H35.96V40H12.04Z" fill="#434343"></path></svg>