<svg width="48" height="48" viewBox="0 0 48 48" fill="none" xmlns="http://www.w3.org/2000/svg" style="flex: 0 0 auto;"><path d="M34 12H30V14H34V12Z" fill="#434343"></path><path d="M16 12H14V14H16V12Z" fill="#434343"></path><path d="M20 12H18V14H20V12Z" fill="#434343"></path><path d="M38 8H10C8.9 8 8 8.9 8 10V38C8 39.1 8.9 40 10 40H38C39.1 40 40 39.1 40 38V10C40 8.9 39.1 8 38 8ZM38 38H10V18H38V38ZM38 16H10V10H38V16Z" fill="#434343"></path><path d="M24 20C19.59 20 16 23.59 16 28C16 32.41 19.59 36 24 36C28.41 36 32 32.41 32 28C32 23.59 28.41 20 24 20ZM24 22C26.97 22 29.43 24.16 29.91 27H18.09C18.57 24.16 21.03 22 24 22ZM24 34C21.03 34 18.57 31.84 18.09 29H29.91C29.43 31.84 26.97 34 24 34Z" fill="#434343"></path></svg>