<svg width="48" height="48" viewBox="0 0 48 48" fill="none" xmlns="http://www.w3.org/2000/svg" style="flex: 0 0 auto;"><path d="M41.99 24C41.99 21.79 40.2 20 37.99 20V16C37.99 12.69 35.3 10 31.99 10H15.99C12.68 10 9.98999 12.69 9.98999 16V20C7.77999 20 5.98999 21.79 5.98999 24C5.98999 24.73 6.19999 25.41 6.54999 26H5.98999V34H9.98999V38H11.99V34H35.99V38H37.99V34H41.99V26H41.43C41.77 25.41 41.99 24.73 41.99 24ZM39.99 24C39.99 25.1 39.09 26 37.99 26C36.89 26 35.99 25.1 35.99 24C35.99 23.59 36.12 23.2 36.33 22.88C36.47 22.67 36.66 22.48 36.87 22.34C37.19 22.12 37.57 22 37.99 22C39.09 22 39.99 22.9 39.99 24ZM11.99 16C11.99 13.79 13.78 12 15.99 12H31.99C34.2 12 35.99 13.79 35.99 16V20.56C34.8 21.25 33.99 22.53 33.99 24C33.99 24.73 34.2 25.41 34.55 26H13.44C13.78 25.41 14 24.73 14 24C14 22.53 13.19 21.25 12 20.56V16H11.99ZM9.98999 22C10.4 22 10.79 22.13 11.11 22.34C11.22 22.41 11.32 22.49 11.41 22.58C11.5 22.67 11.58 22.77 11.65 22.88C11.87 23.2 11.99 23.58 11.99 24C11.99 25.1 11.09 26 9.98999 26C8.88999 26 7.98999 25.1 7.98999 24C7.98999 22.9 8.88999 22 9.98999 22ZM39.99 32H7.98999V28H22.99V32H24.99V28H39.99V32Z" fill="#434343"></path></svg>