<svg width="48" height="48" viewBox="0 0 48 48" fill="none" xmlns="http://www.w3.org/2000/svg" style="flex: 0 0 auto;"><path d="M28 12H14V14H28V12Z" fill="#434343"></path><path d="M28 16H14V18H28V16Z" fill="#434343"></path><path d="M32 6H10C8.9 6 8 6.9 8 8V40C8 41.1 8.9 42 10 42H32C33.1 42 34 41.1 34 40V8C34 6.9 33.1 6 32 6ZM32 8V22H10V8H32ZM10 40V24H32V40H10Z" fill="#434343"></path><path d="M23 26H19V28H23V26Z" fill="#434343"></path><path d="M42 23H36V25H42V23Z" fill="#434343"></path><path d="M41 36H39C39 34.35 37.65 33 36 33V31C38.76 31 41 33.24 41 36Z" fill="#434343"></path><path d="M36 17V15C37.65 15 39 13.65 39 12H41C41 14.76 38.76 17 36 17Z" fill="#434343"></path></svg>