<svg width="48" height="48" viewBox="0 0 48 48" fill="none" xmlns="http://www.w3.org/2000/svg" style="flex: 0 0 auto;"><path d="M18 24C20.21 24 22 25.79 22 28C22 30.21 20.21 32 18 32C15.79 32 14 30.21 14 28C14 25.79 15.79 24 18 24ZM18 22C14.69 22 12 24.69 12 28C12 31.31 14.69 34 18 34C21.31 34 24 31.31 24 28C24 24.69 21.31 22 18 22Z" fill="#434343"></path><path d="M24 24C26.21 24 28 25.79 28 28C28 30.21 26.21 32 24 32M24 34C27.31 34 30 31.31 30 28C30 24.69 27.31 22 24 22" fill="#434343"></path><path d="M30 24C32.21 24 34 25.79 34 28C34 30.21 32.21 32 30 32M30 34C33.31 34 36 31.31 36 28C36 24.69 33.31 22 30 22" fill="#434343"></path><path d="M38 8H10C8.9 8 8 8.9 8 10V38C8 39.1 8.9 40 10 40H38C39.1 40 40 39.1 40 38V10C40 8.9 39.1 8 38 8ZM38 38H10V18H38V38ZM38 16H10V10H38V16Z" fill="#434343"></path><path d="M34 12H30V14H34V12Z" fill="#434343"></path><path d="M16 12H14V14H16V12Z" fill="#434343"></path><path d="M20 12H18V14H20V12Z" fill="#434343"></path></svg>