<svg width="48" height="48" viewBox="0 0 48 48" fill="none" xmlns="http://www.w3.org/2000/svg" style="flex: 0 0 auto;"><path d="M40.16 10.02L40.18 10H7.83L7.85 10.02C6.82 10.1 6 10.95 6 12V16C6 17.1 6.9 18 8 18H10V38H12V30H36V38H38V18H40C41.1 18 42 17.1 42 16V12C42 10.95 41.19 10.1 40.16 10.02ZM30.6 16L30.36 16.21L29.5 17L24 22L19.6 18L19.26 17.69L18.5 17L17.64 16.21L17.4 16L13 12H35L30.6 16ZM10 16H8V12H10.03L11.66 13.48L14.43 16H12H10ZM36 28H12V18H16.63L17.16 18.48L22.66 23.48L24.01 24.7L25.36 23.48L30.86 18.48L31.39 18H36.01V28H36ZM40 16H38H36H33.58L36.35 13.48L37.98 12H40V16Z" fill="#434343"></path></svg>