<svg width="48" height="48" viewBox="0 0 48 48" fill="none" xmlns="http://www.w3.org/2000/svg" style="flex: 0 0 auto;"><path d="M32.81 22H27.99V12C27.99 10.9 27.09 10 25.99 10H7.98999C6.88999 10 5.98999 10.9 5.98999 12V36C5.98999 37.1 6.88999 38 7.98999 38H39.99C41.09 38 41.99 37.1 41.99 36V32C41.99 26.49 37.87 22 32.81 22ZM21.99 12H25.99V14V15.99H21.99V12ZM7.98999 26C11.3 26 13.99 28.69 13.99 32H7.98999V26ZM39.99 36H7.98999V34H39.99V36ZM15.99 32C15.99 27.59 12.4 24 7.98999 24V12H19.99V15.99V17.99H25.99V20.02H19.99V22.02H25.99V23C25.99 23.55 26.44 24 26.99 24H32.81C36.77 24 39.99 27.59 39.99 32H15.99Z" fill="#434343"></path></svg>