<svg width="48" height="48" viewBox="0 0 48 48" fill="none" xmlns="http://www.w3.org/2000/svg" style="flex: 0 0 auto;"><path d="M36 18H32V20H36V18Z" fill="#434343"></path><path d="M36 23H32V25H36V23Z" fill="#434343"></path><path d="M36 28H32V30H36V28Z" fill="#434343"></path><path d="M40 10H19.92V8H17.92V10H8C6.9 10 6 10.9 6 12V36C6 37.1 6.9 38 8 38H40C41.1 38 42 37.1 42 36V12C42 10.9 41.1 10 40 10ZM40 36H8V12H17.92V14H9.99V34H27.99V14H19.92V12H40V36ZM19.92 18.02V16H25.99V32H11.99V16H17.92V18.02H19.92Z" fill="#434343"></path><path d="M15.98 24C15.98 25.65 17.33 27 18.98 27C20.63 27 21.98 25.65 21.98 24C21.98 22.35 20.63 21 18.98 21C17.33 21 15.98 22.35 15.98 24ZM18.98 23C19.53 23 19.98 23.45 19.98 24C19.98 24.55 19.53 25 18.98 25C18.43 25 17.98 24.55 17.98 24C17.98 23.45 18.43 23 18.98 23Z" fill="#434343"></path></svg>