<svg width="48" height="48" viewBox="0 0 48 48" fill="none" xmlns="http://www.w3.org/2000/svg" style="flex: 0 0 auto;"><path d="M39.99 12V36H7.98999V12H39.99ZM39.99 10H7.98999C6.88999 10 5.98999 10.9 5.98999 12V36C5.98999 37.1 6.88999 38 7.98999 38H39.99C41.09 38 41.99 37.1 41.99 36V12C41.99 10.9 41.09 10 39.99 10Z" fill="#434343"></path><path d="M17.99 32H13.99V34H17.99V32Z" fill="#434343"></path><path d="M33.99 32H29.99V34H33.99V32Z" fill="#434343"></path><path d="M15.99 16C12.68 16 9.98999 18.69 9.98999 22C9.98999 25.31 12.68 28 15.99 28C19.3 28 21.99 25.31 21.99 22C21.99 18.69 19.3 16 15.99 16ZM16.99 25.86V24H14.99V25.86C13.59 25.5 12.49 24.4 12.13 23H13.99V21H12.13C12.49 19.6 13.59 18.5 14.99 18.14V20H16.99V18.14C18.39 18.5 19.49 19.6 19.85 21H17.99V23H19.85C19.49 24.4 18.39 25.5 16.99 25.86Z" fill="#434343"></path><path d="M31.99 16C28.68 16 25.99 18.69 25.99 22C25.99 25.31 28.68 28 31.99 28C35.3 28 37.99 25.31 37.99 22C37.99 18.69 35.3 16 31.99 16ZM32.99 25.86V24H30.99V25.86C29.59 25.5 28.49 24.4 28.13 23H29.99V21H28.13C28.49 19.6 29.59 18.5 30.99 18.14V20H32.99V18.14C34.39 18.5 35.49 19.6 35.85 21H33.99V23H35.85C35.49 24.4 34.39 25.5 32.99 25.86Z" fill="#434343"></path></svg>