<svg width="48" height="48" viewBox="0 0 48 48" fill="none" xmlns="http://www.w3.org/2000/svg" style="flex: 0 0 auto;"><path d="M25.99 22H23.99V24H25.99V22Z" fill="#434343"></path><path d="M33.99 22H31.99V24H33.99V22Z" fill="#434343"></path><path d="M29.99 22H27.99V24H29.99V22Z" fill="#434343"></path><path d="M25.99 26H23.99V28H25.99V26Z" fill="#434343"></path><path d="M33.99 26H31.99V28H33.99V26Z" fill="#434343"></path><path d="M29.99 26H27.99V28H29.99V26Z" fill="#434343"></path><path d="M25.99 30H23.99V32H25.99V30Z" fill="#434343"></path><path d="M33.99 30H31.99V32H33.99V30Z" fill="#434343"></path><path d="M29.99 30H27.99V32H29.99V30Z" fill="#434343"></path><path d="M37.99 8H9.98999C8.88999 8 7.98999 8.9 7.98999 10V38C7.98999 39.1 8.88999 40 9.98999 40H37.99C39.09 40 39.99 39.1 39.99 38V10C39.99 8.9 39.09 8 37.99 8ZM9.98999 38V10H17.99V38H9.98999ZM37.99 38H19.99V10H37.99V38Z" fill="#434343"></path><path d="M33.99 16H23.99V18H33.99V16Z" fill="#434343"></path></svg>