<svg width="48" height="48" viewBox="0 0 48 48" fill="none" xmlns="http://www.w3.org/2000/svg" style="flex: 0 0 auto;"><path d="M39.99 12V36H7.98999V12H39.99ZM39.99 10H7.98999C6.88999 10 5.98999 10.9 5.98999 12V36C5.98999 37.1 6.88999 38 7.98999 38H39.99C41.09 38 41.99 37.1 41.99 36V12C41.99 10.9 41.09 10 39.99 10Z" fill="#434343"></path><path d="M37.01 20H35.01V22H37.01V20Z" fill="#434343"></path><path d="M37.01 16H35.01V18H37.01V16Z" fill="#434343"></path><path d="M27.99 22H25.99V26H27.99V22Z" fill="#434343"></path><path d="M29.99 18V30H11.99V18H29.99ZM31.99 16H9.98999V32H31.99V16Z" fill="#434343"></path></svg>