<svg width="48" height="48" viewBox="0 0 48 48" fill="none" xmlns="http://www.w3.org/2000/svg" style="flex: 0 0 auto;"><path d="M35.99 8V32H11.99V8H35.99ZM35.99 6H11.99C10.89 6 9.98999 6.9 9.98999 8V32C9.98999 33.1 10.89 34 11.99 34H35.99C37.09 34 37.99 33.1 37.99 32V8C37.99 6.9 37.09 6 35.99 6Z" fill="#434343"></path><path d="M27.99 16V24H19.99V16H27.99ZM29.99 14H17.99V26H29.99V14Z" fill="#434343"></path><path d="M24.99 36H22.99V42H24.99V36Z" fill="#434343"></path><path d="M11.99 41V39C13.64 39 14.99 37.65 14.99 36H16.99C16.99 38.76 14.75 41 11.99 41Z" fill="#434343"></path><path d="M35.99 41C33.23 41 30.99 38.76 30.99 36H32.99C32.99 37.65 34.34 39 35.99 39V41Z" fill="#434343"></path><path d="M29.99 10H17.99V12H29.99V10Z" fill="#434343"></path><path d="M29.99 28H17.99V30H29.99V28Z" fill="#434343"></path><path d="M33.99 26V14H31.99V26H33.99Z" fill="#434343"></path><path d="M15.99 26V14H13.99V26H15.99Z" fill="#434343"></path></svg>