<svg width="48" height="48" viewBox="0 0 48 48" fill="none" xmlns="http://www.w3.org/2000/svg" style="flex: 0 0 auto;"><path d="M18 12H16V14H18V12Z" fill="#434343"></path><path d="M23 12H21V14H23V12Z" fill="#434343"></path><path d="M28 12H26V14H28V12Z" fill="#434343"></path><path d="M18 17H16V19H18V17Z" fill="#434343"></path><path d="M23 17H21V19H23V17Z" fill="#434343"></path><path d="M28 17H26V19H28V17Z" fill="#434343"></path><path d="M18 22H16V24H18V22Z" fill="#434343"></path><path d="M23 22H21V24H23V22Z" fill="#434343"></path><path d="M28 22H26V24H28V22Z" fill="#434343"></path><path d="M38 34H34V8C34 6.9 33.1 6 32 6H12C10.9 6 10 6.9 10 8V40C10 41.1 10.9 42 12 42H32C33.1 42 34 41.1 34 40V36H38V34ZM12 8H32V28H12V8ZM32 40H12V30H32V34H16V36H32V40Z" fill="#434343"></path></svg>