<svg width="48" height="48" viewBox="0 0 48 48" fill="none" xmlns="http://www.w3.org/2000/svg" style="flex: 0 0 auto;"><path d="M9.95996 32V24H7.95996V40H9.95996V34H13.99V40H15.99V32H9.95996Z" fill="#434343"></path><path d="M37.99 32V24H39.99V40H37.99V34H33.96V40H31.96V32H37.99Z" fill="#434343"></path><path d="M36.62 12.1L30.62 10.1L24.62 8.10001C24.41 8.03001 24.2 8 23.99 8C23.78 8 23.56 8.03001 23.36 8.10001L17.36 10.1L11.36 12.1C10.43 12.41 9.85997 13.35 10.02 14.32C10.18 15.29 11.01 16 11.99 16H22.99V24H13.99V30H22.99V40H24.99V30H33.99V24H24.99V16H35.99C36.97 16 37.81 15.29 37.96 14.32C38.12 13.35 37.55 12.41 36.62 12.1ZM31.99 26V28H15.99V26H31.99ZM23.99 14H11.99L17.99 12L23.99 10L29.99 12L35.99 14H23.99Z" fill="#434343"></path></svg>