<svg width="48" height="48" viewBox="0 0 48 48" fill="none" xmlns="http://www.w3.org/2000/svg" style="flex: 0 0 auto;"><path d="M37.99 10V38H9.98999V10H37.99ZM37.99 8H9.98999C8.88999 8 7.98999 8.9 7.98999 10V38C7.98999 39.1 8.88999 40 9.98999 40H37.99C39.09 40 39.99 39.1 39.99 38V10C39.99 8.9 39.09 8 37.99 8Z" fill="#434343"></path><path d="M27.99 24H25.99V26H27.99V24Z" fill="#434343"></path><path d="M35.99 24H33.99V26H35.99V24Z" fill="#434343"></path><path d="M31.99 24H29.99V26H31.99V24Z" fill="#434343"></path><path d="M27.99 28H25.99V30H27.99V28Z" fill="#434343"></path><path d="M35.99 28H33.99V30H35.99V28Z" fill="#434343"></path><path d="M31.99 28H29.99V30H31.99V28Z" fill="#434343"></path><path d="M27.99 32H25.99V34H27.99V32Z" fill="#434343"></path><path d="M35.99 32H33.99V34H35.99V32Z" fill="#434343"></path><path d="M31.99 32H29.99V34H31.99V32Z" fill="#434343"></path><path d="M30.99 16C31.54 16 31.99 16.45 31.99 17C31.99 17.55 31.54 18 30.99 18C30.44 18 29.99 17.55 29.99 17C29.99 16.45 30.44 16 30.99 16ZM30.99 14C29.34 14 27.99 15.35 27.99 17C27.99 18.65 29.34 20 30.99 20C32.64 20 33.99 18.65 33.99 17C33.99 15.35 32.64 14 30.99 14Z" fill="#434343"></path><path d="M22.62 19.44L20.62 18.77L18.62 18.1L17.99 17.89L17.36 18.1L15.36 18.77L13.36 19.44L11.99 19.9V24.12C11.99 27.37 14.68 30.01 17.99 30.01C21.3 30.01 23.99 27.37 23.99 24.12V19.9L22.62 19.44ZM17.32 24C17.32 23.63 17.62 23.33 17.99 23.33C18.36 23.33 18.66 23.63 18.66 24C18.66 24.37 18.36 24.67 17.99 24.67C17.62 24.67 17.32 24.37 17.32 24ZM21.99 24.11C21.99 25.92 20.71 27.43 18.99 27.86V26.47C19.97 26.07 20.66 25.12 20.66 24C20.66 22.53 19.46 21.33 17.99 21.33C16.52 21.33 15.32 22.53 15.32 24C15.32 25.12 16.01 26.07 16.99 26.47V27.86C15.27 27.43 13.99 25.92 13.99 24.11V21.33L15.99 20.66L17.99 19.99L19.99 20.66L21.99 21.33V24.11Z" fill="#434343"></path></svg>