<svg width="48" height="48" viewBox="0 0 48 48" fill="none" xmlns="http://www.w3.org/2000/svg" style="flex: 0 0 auto;"><path d="M35.99 8V40H11.99V8H35.99ZM35.99 6H11.99C10.89 6 9.98999 6.9 9.98999 8V40C9.98999 41.1 10.89 42 11.99 42H35.99C37.09 42 37.99 41.1 37.99 40V8C37.99 6.9 37.09 6 35.99 6Z" fill="#434343"></path><path d="M23.99 23.98C27.3 23.98 29.99 26.67 29.99 29.98C29.99 33.29 27.3 35.98 23.99 35.98C20.68 35.98 17.99 33.29 17.99 29.98C17.99 26.67 20.68 23.98 23.99 23.98ZM23.99 21.98C19.58 21.98 15.99 25.57 15.99 29.98C15.99 34.39 19.58 37.98 23.99 37.98C28.4 37.98 31.99 34.39 31.99 29.98C31.99 25.57 28.4 21.98 23.99 21.98Z" fill="#434343"></path><path d="M23.99 12.02C25.65 12.02 26.99 13.36 26.99 15.02C26.99 16.68 25.65 18.02 23.99 18.02C22.33 18.02 20.99 16.68 20.99 15.02C20.99 13.36 22.33 12.02 23.99 12.02ZM23.99 10.02C21.23 10.02 18.99 12.26 18.99 15.02C18.99 17.78 21.23 20.02 23.99 20.02C26.75 20.02 28.99 17.78 28.99 15.02C28.99 12.26 26.75 10.02 23.99 10.02Z" fill="#434343"></path><path d="M23.99 28.98C24.54 28.98 24.99 29.43 24.99 29.98C24.99 30.53 24.54 30.98 23.99 30.98C23.44 30.98 22.99 30.53 22.99 29.98C22.99 29.43 23.44 28.98 23.99 28.98ZM23.99 26.98C22.34 26.98 20.99 28.33 20.99 29.98C20.99 31.63 22.34 32.98 23.99 32.98C25.64 32.98 26.99 31.63 26.99 29.98C26.99 28.33 25.64 26.98 23.99 26.98Z" fill="#434343"></path></svg>