<svg width="16" height="16" viewBox="0 0 16 16" fill="none" xmlns="http://www.w3.org/2000/svg">
<ellipse cx="8" cy="7.99995" rx="8" ry="7.99995" fill="#FFCC01"/>
<path d="M8.09824 4.61182C8.71019 4.61182 9.27618 4.72903 9.79621 4.96346C10.3162 5.19788 10.7274 5.51665 11.0296 5.91977C11.3318 6.32289 11.4829 6.76259 11.4829 7.23889C11.4829 7.71518 11.3318 8.15551 11.0296 8.55986C10.7274 8.96422 10.3169 9.28361 9.7981 9.51804C9.27933 9.75246 8.71271 9.86968 8.09824 9.86968C7.90433 9.86968 7.70412 9.85603 7.49762 9.82875C6.6011 10.4415 6.12388 10.7516 6.06596 10.759C6.03826 10.7689 6.01181 10.7677 5.98663 10.7553C5.97656 10.7478 5.969 10.7379 5.96397 10.7255C5.95893 10.7131 5.95641 10.702 5.95641 10.692V10.6771C5.97152 10.5804 6.0861 10.1773 6.30016 9.4678C5.81413 9.22965 5.42819 8.91398 5.14237 8.52079C4.85654 8.1276 4.71362 7.7003 4.71362 7.23889C4.71362 6.76259 4.86472 6.32289 5.16692 5.91977C5.46912 5.51665 5.88023 5.19788 6.40026 4.96346C6.9203 4.72903 7.48629 4.61182 8.09824 4.61182Z" fill="#3C1E1E"/>
</svg>
