<svg width="319" height="54" viewBox="0 0 319 54" fill="none" xmlns="http://www.w3.org/2000/svg">
<rect width="319" height="54" rx="8" fill="#5AC451"/>
<path d="M84.5 33.375V20.625H89.4333L94.3 26.7524V20.625H99.5V33.375H94.3L89.4333 27.1238V33.375H84.5Z" fill="white"/>
<path d="M114.812 21.5781V29.3203C116.117 29.2969 117.32 29.2031 118.656 28.9219L118.922 30.5938C117.172 30.9766 115.641 31.0391 113.812 31.0312H112.812V21.5781H114.812ZM116.812 26.3281V24.7188H119.656V20.4844H121.547V33.8125H119.656V26.3281H116.812ZM122.719 34.4375V20.2188H124.594V34.4375H122.719ZM138 20.2188V34.4688H135.984V20.2188H138ZM126.516 26.2812C126.508 23.1797 128.094 21.2188 130.281 21.2188C132.422 21.2188 134.016 23.1797 134.016 26.2812C134.016 29.4062 132.422 31.3594 130.281 31.3594C128.094 31.3594 126.508 29.4062 126.516 26.2812ZM128.438 26.2812C128.43 28.3984 129.172 29.5547 130.281 29.5469C131.359 29.5547 132.086 28.3984 132.094 26.2812C132.086 24.1719 131.359 23.0156 130.281 23.0156C129.172 23.0156 128.43 24.1719 128.438 26.2812ZM151.922 20.2188V34.4688H149.953V26.8438H147.312V31.0938H140.453V21.3125H142.438V24.7656H145.359V21.3125H147.312V25.2344H149.953V20.2188H151.922ZM142.438 29.5H145.359V26.3281H142.438V29.5ZM166.766 31.2188V32.8594H153.75V31.2188H159.234V29.0781H155.25V24.2969H163.297V22.7344H155.234V21.1406H165.266V25.8594H157.25V27.4531H165.594V29.0781H161.219V31.2188H166.766ZM176.797 23.4375C176.789 26.0469 177.977 28.6641 180.391 29.6875L179.219 31.2812C177.594 30.5469 176.469 29.125 175.82 27.3672C175.18 29.2891 174.016 30.8359 172.281 31.625L171.078 29.9688C173.562 28.9219 174.773 26.1953 174.781 23.4375V21.3125H176.797V23.4375ZM181.156 34.4688V20.2188H183.172V34.4688H181.156ZM193.172 21.0469V22.6406H190.344C190.352 24.3047 191.352 26.0156 193.656 26.75L192.641 28.2969C191.062 27.7812 189.977 26.7656 189.359 25.5C188.727 26.8828 187.586 27.9922 185.938 28.5312L184.875 27C187.227 26.2422 188.305 24.4141 188.328 22.6406H185.422V21.0469H193.172ZM186.797 30.9844V29.4062H196.375V34.4375H194.375V30.9844H186.797ZM194.375 28.7969V20.2188H196.375V23.6719H198.297V25.3281H196.375V28.7969H194.375ZM210.141 20.2188V25.7812H212.234V27.4219H210.141V34.4375H208.172V20.2188H210.141ZM198.844 23.9375V22.3438H202.062V20.4375H204.062V22.3438H207.203V23.9375H198.844ZM199.422 28.125C199.414 26.1406 200.961 24.7266 203.062 24.7344C205.133 24.7266 206.688 26.1406 206.688 28.125C206.688 30.1094 205.133 31.5078 203.062 31.5156C200.961 31.5078 199.414 30.1094 199.422 28.125ZM201.328 28.125C201.328 29.2266 202.055 29.8828 203.062 29.875C204.055 29.8828 204.781 29.2266 204.781 28.125C204.781 27.0312 204.055 26.3594 203.062 26.3438C202.055 26.3594 201.328 27.0312 201.328 28.125ZM224.703 20.2188V34.4375H222.688V20.2188H224.703ZM212.797 30.4062C216.469 28.6719 218.086 26.4219 218.406 23.2656H213.562V21.7031H220.438C220.43 26.0156 218.922 29.6016 213.844 32L212.797 30.4062Z" fill="white"/>
</svg>
