<svg width="319" height="54" viewBox="0 0 319 54" fill="none" xmlns="http://www.w3.org/2000/svg">
<rect width="319" height="54" rx="8" fill="#FFCC01"/>
<path d="M78.5 18.8184C80.1272 18.8184 81.6323 19.13 83.0151 19.7534C84.3979 20.3768 85.4911 21.2244 86.2946 22.2963C87.0982 23.3682 87.5 24.5375 87.5 25.804C87.5 27.0705 87.0982 28.2414 86.2946 29.3166C85.4911 30.3918 84.3996 31.2411 83.0201 31.8644C81.6406 32.4878 80.1339 32.7995 78.5 32.7995C77.9844 32.7995 77.452 32.7632 76.9029 32.6906C74.519 34.32 73.25 35.1445 73.096 35.1643C73.0223 35.1907 72.952 35.1874 72.885 35.1544C72.8583 35.1346 72.8382 35.1082 72.8248 35.0753C72.8114 35.0423 72.8047 35.0126 72.8047 34.9862V34.9466C72.8449 34.6894 73.1496 33.6174 73.7188 31.7309C72.4263 31.0976 71.4001 30.2582 70.6401 29.2127C69.88 28.1671 69.5 27.0309 69.5 25.804C69.5 24.5375 69.9018 23.3682 70.7054 22.2963C71.5089 21.2244 72.6021 20.3768 73.9849 19.7534C75.3677 19.13 76.8728 18.8184 78.5 18.8184Z" fill="#3C1E1E"/>
<path d="M107.359 21.5781C107.344 25.9688 106.281 29.6172 100.969 32.2812L99.875 30.7812C102.25 29.6016 103.664 28.2812 104.469 26.7031L100.266 27.0938L100.016 25.3906L105.07 25.0859C105.219 24.4844 105.32 23.8438 105.367 23.1719H100.766V21.5781H107.359ZM109.156 34.4062V20.2188H111.156V25.6719H113.172V27.3125H111.156V34.4062H109.156ZM121.188 21.5781C121.172 25.9688 120.109 29.6172 114.797 32.2812L113.703 30.7812C116.078 29.6016 117.492 28.2812 118.297 26.7031L114.094 27.0938L113.844 25.3906L118.898 25.0859C119.047 24.4844 119.148 23.8438 119.195 23.1719H114.594V21.5781H121.188ZM122.984 34.4062V20.2188H124.984V25.6719H127V27.3125H124.984V34.4062H122.984ZM134.078 20.9531C137.133 20.9531 139.43 22.5 139.438 24.8438C139.43 26.9922 137.617 28.4297 135.062 28.7109V31.1406H140.609V32.7812H127.594V31.1406H133.078V28.7109C130.539 28.4219 128.734 26.9844 128.734 24.8438C128.734 22.5 131.023 20.9531 134.078 20.9531ZM130.703 24.8438C130.703 26.3438 132.086 27.1797 134.078 27.1875C136.078 27.1797 137.461 26.3438 137.469 24.8438C137.461 23.4219 136.078 22.5391 134.078 22.5469C132.086 22.5391 130.703 23.4219 130.703 24.8438ZM154.391 27.7656V29.3281H141.391V27.7656H146.891V26.7188H143.016V20.5312H152.875V22.0781H145.016V22.875H152.547V24.3438H145.016V25.2031H153V26.7188H148.891V27.7656H154.391ZM142.859 31.7656V30.2031H152.797V34.4375H150.781V31.7656H142.859ZM161.734 20.9375C164.734 20.9453 167.086 22.5703 167.094 25.0312C167.086 27.5156 164.734 29.1328 161.734 29.125C158.727 29.1328 156.391 27.5156 156.391 25.0312C156.391 22.5703 158.727 20.9453 161.734 20.9375ZM155.25 32.7031V31.0938H168.266V32.7031H155.25ZM158.328 25.0312C158.32 26.5781 159.758 27.5 161.734 27.5C163.695 27.5 165.117 26.5781 165.125 25.0312C165.117 23.5078 163.695 22.5469 161.734 22.5625C159.758 22.5469 158.32 23.5078 158.328 25.0312ZM182.094 31.2188V32.8594H169.078V31.2188H174.562V29.0781H170.578V24.2969H178.625V22.7344H170.562V21.1406H180.594V25.8594H172.578V27.4531H180.922V29.0781H176.547V31.2188H182.094ZM192.125 23.4375C192.117 26.0469 193.305 28.6641 195.719 29.6875L194.547 31.2812C192.922 30.5469 191.797 29.125 191.148 27.3672C190.508 29.2891 189.344 30.8359 187.609 31.625L186.406 29.9688C188.891 28.9219 190.102 26.1953 190.109 23.4375V21.3125H192.125V23.4375ZM196.484 34.4688V20.2188H198.5V34.4688H196.484ZM208.5 21.0469V22.6406H205.672C205.68 24.3047 206.68 26.0156 208.984 26.75L207.969 28.2969C206.391 27.7812 205.305 26.7656 204.688 25.5C204.055 26.8828 202.914 27.9922 201.266 28.5312L200.203 27C202.555 26.2422 203.633 24.4141 203.656 22.6406H200.75V21.0469H208.5ZM202.125 30.9844V29.4062H211.703V34.4375H209.703V30.9844H202.125ZM209.703 28.7969V20.2188H211.703V23.6719H213.625V25.3281H211.703V28.7969H209.703ZM225.469 20.2188V25.7812H227.562V27.4219H225.469V34.4375H223.5V20.2188H225.469ZM214.172 23.9375V22.3438H217.391V20.4375H219.391V22.3438H222.531V23.9375H214.172ZM214.75 28.125C214.742 26.1406 216.289 24.7266 218.391 24.7344C220.461 24.7266 222.016 26.1406 222.016 28.125C222.016 30.1094 220.461 31.5078 218.391 31.5156C216.289 31.5078 214.742 30.1094 214.75 28.125ZM216.656 28.125C216.656 29.2266 217.383 29.8828 218.391 29.875C219.383 29.8828 220.109 29.2266 220.109 28.125C220.109 27.0312 219.383 26.3594 218.391 26.3438C217.383 26.3594 216.656 27.0312 216.656 28.125ZM240.031 20.2188V34.4375H238.016V20.2188H240.031ZM228.125 30.4062C231.797 28.6719 233.414 26.4219 233.734 23.2656H228.891V21.7031H235.766C235.758 26.0156 234.25 29.6016 229.172 32L228.125 30.4062Z" fill="black"/>
</svg>
